<svg width="16" height="16" viewBox="0 0 16 16" fill="none" xmlns="http://www.w3.org/2000/svg">
<rect width="16" height="16" rx="2" fill="#FCCF47"/>
<path d="M2.99956 12V4.72727H5.72683C6.28554 4.72727 6.75429 4.83144 7.13308 5.03977C7.51423 5.24811 7.80188 5.53456 7.99601 5.89915C8.1925 6.26136 8.29075 6.6733 8.29075 7.13494C8.29075 7.60133 8.1925 8.01562 7.99601 8.37784C7.79951 8.74006 7.5095 9.02533 7.12598 9.23366C6.74245 9.43963 6.27015 9.54261 5.70907 9.54261H3.90154V8.45952H5.53152C5.85822 8.45952 6.12574 8.4027 6.33407 8.28906C6.54241 8.17543 6.69629 8.01918 6.79572 7.82031C6.89752 7.62145 6.94842 7.39299 6.94842 7.13494C6.94842 6.87689 6.89752 6.64962 6.79572 6.45312C6.69629 6.25663 6.54122 6.10393 6.33052 5.99503C6.12219 5.88376 5.85349 5.82812 5.52441 5.82812H4.31703V12H2.99956Z" fill="black"/>
<path d="M10.5588 12H8.09428V4.72727H10.6085C11.3306 4.72727 11.9508 4.87287 12.4693 5.16406C12.9901 5.45289 13.3902 5.86837 13.6696 6.41051C13.9489 6.95265 14.0886 7.60133 14.0886 8.35653C14.0886 9.11411 13.9477 9.76515 13.666 10.3097C13.3867 10.8542 12.983 11.272 12.4551 11.5632C11.9295 11.8544 11.2974 12 10.5588 12ZM9.41175 10.8601H10.4949C11.0015 10.8601 11.4241 10.7678 11.7626 10.5831C12.1011 10.3961 12.3556 10.1179 12.5261 9.74858C12.6966 9.37689 12.7818 8.91288 12.7818 8.35653C12.7818 7.80019 12.6966 7.33854 12.5261 6.97159C12.3556 6.60227 12.1035 6.32647 11.7697 6.14418C11.4383 5.95952 11.0263 5.86719 10.5339 5.86719H9.41175V10.8601Z" fill="#FF8E39"/>
</svg>
